<svg xmlns="http://www.w3.org/2000/svg" xmlns:svg="http://www.w3.org/2000/svg" id="svg3329" width="64" height="64" version="1.1"><metadata id="metadata3334"/><g id="layer1"><g id="g1576" transform="matrix(0.0433007,0.02499969,-0.02499969,0.0433007,158.7324,-351.13402)"><path id="path1547" fill="#999" fill-opacity="1" fill-rule="evenodd" stroke="none" d="m 1443.6183,7424.3988 59.717,0 c 26.333,0 38.743,18.1541 38.743,38.7434 l 0,428.4931 c 0,53.1171 -11.54,101.4569 -36.941,145.4529 l -167.629,287.2908 c -21.268,36.8381 -54.639,34.4604 -74.535,0 l -160.577,-275.4783 c -31.251,-54.1282 -30.238,-100.6602 2.918,-158.0884 l 234.143,-402.4169 c 24.488,-42.4137 61.421,-63.9966 104.161,-63.9966 z"/><rect id="rect1549" width="183.489" height="153.901" x="1585.433" y="7587.458" fill="#ffbe00" fill-opacity="1" stroke="none"/><path id="path1551" fill="#ffbe00" fill-opacity="1" fill-rule="evenodd" stroke="none" d="m 1580.3363,7990.1137 186.037,0 98.146,169.9932 c 0,61.8907 -95.129,127.5839 -184.793,127.5839 -96.196,0 -193.682,-68.3582 -193.682,-131.9278 l 94.292,-165.6493 z"/><path id="path1553" fill="#ffbe00" fill-opacity="1" fill-rule="evenodd" stroke="none" d="m 1590.5303,7549.2314 175.843,0 0,-94.3678 c 0,-45.1957 27.52,-75.1043 75.105,-75.1043 l 37.374,0 c 0,-73.3077 -92.685,-173.9694 -200.291,-173.9694 -104.491,0 -197.524,89.9118 -197.524,172.8498 l 33.706,0 c 40.597,0 77.034,31.3696 77.034,76.4089 l -1.247,94.1828 z"/><rect id="rect1557" width="183.489" height="166.515" x="1584.585" y="7779.034" fill="#ffbe00" fill-opacity="1" stroke="none"/><path id="path1574" fill="#999" fill-opacity="1" fill-rule="evenodd" stroke="none" d="m 1913.2157,7432.5517 -59.717,0 c -26.333,0 -38.743,18.1541 -38.743,38.7434 l 0,428.4931 c 0,53.1171 11.54,101.4569 36.941,145.4529 l 167.629,287.2908 c 21.268,36.8381 54.639,34.4604 74.535,0 l 160.577,-275.4783 c 31.251,-54.1282 30.238,-100.6602 -2.918,-158.0884 l -234.143,-402.4169 c -24.488,-42.4137 -61.421,-63.9966 -104.161,-63.9966 z"/></g></g></svg>